<svg width="24" height="24" viewBox="0 0 24 24" fill="none" xmlns="http://www.w3.org/2000/svg">
<path fill-rule="evenodd" clip-rule="evenodd" d="M11.8445 21.1569C8.15273 21.1569 5 20.5824 5 18.2817C5 15.9809 8.13273 13.3569 11.8445 13.3569C15.5364 13.3569 18.6891 15.9603 18.6891 18.2611C18.6891 20.5609 15.5564 21.1569 11.8445 21.1569Z" stroke="#858383" stroke-width="1.7" stroke-linecap="round" stroke-linejoin="round"/>
<path fill-rule="evenodd" clip-rule="evenodd" d="M11.8373 11.1737C14.26 11.1737 16.2237 9.21003 16.2237 6.7873C16.2237 4.36457 14.26 2.40002 11.8373 2.40002C9.41458 2.40002 7.45001 4.36457 7.45001 6.7873C7.44185 9.20184 9.39185 11.1655 11.8064 11.1737C11.8173 11.1737 11.8273 11.1737 11.8373 11.1737Z" stroke="#858383" stroke-width="1.7" stroke-linecap="round" stroke-linejoin="round"/>
</svg>
