<svg width="19" height="19" viewBox="0 0 19 19" fill="none" xmlns="http://www.w3.org/2000/svg">
<path fill-rule="evenodd" clip-rule="evenodd" d="M9.13098 0C14.1659 0 18.2613 4.00508 18.2613 8.9289C18.2613 11.2519 17.3497 13.3707 15.8579 14.9608L18.7933 17.8254C19.068 18.0941 19.0689 18.5287 18.7942 18.7974C18.6573 18.9331 18.4763 19 18.2963 19C18.1172 19 17.9372 18.9331 17.7994 18.7992L14.8286 15.902C13.2658 17.126 11.2843 17.8587 9.13098 17.8587C4.0961 17.8587 -0.000244141 13.8527 -0.000244141 8.9289C-0.000244141 4.00508 4.0961 0 9.13098 0ZM9.13098 1.37537C4.87149 1.37537 1.40615 4.76336 1.40615 8.9289C1.40615 13.0944 4.87149 16.4833 9.13098 16.4833C13.3895 16.4833 16.8549 13.0944 16.8549 8.9289C16.8549 4.76336 13.3895 1.37537 9.13098 1.37537Z" fill="#A7A7A7"/>
</svg>
